<svg xmlns="http://www.w3.org/2000/svg" width="400" height="300" viewBox="0 0 400 300" fill="none">
<!-- Background -->
<rect width="400" height="300" fill="#f8f9fa"/>

<!-- Grid Side AC -->
<rect x="20" y="120" width="60" height="60" rx="8" fill="#dc3545" stroke="#c82333" stroke-width="2"/>
<text x="50" y="145" text-anchor="middle" font-family="Arial, sans-serif" font-size="10" fill="white" font-weight="bold">AC</text>
<text x="50" y="158" text-anchor="middle" font-family="Arial, sans-serif" font-size="8" fill="white">Grid</text>

<!-- Transformer -->
<rect x="100" y="130" width="40" height="40" rx="4" fill="#6c757d" stroke="#495057" stroke-width="1"/>
<text x="120" y="150" text-anchor="middle" font-family="Arial, sans-serif" font-size="8" fill="white" font-weight="bold">TX</text>

<!-- MMC Valve Stack -->
<rect x="160" y="80" width="80" height="140" rx="8" fill="#0033a0" stroke="#002269" stroke-width="2"/>
<text x="200" y="100" text-anchor="middle" font-family="Arial, sans-serif" font-size="11" fill="white" font-weight="bold">MMC Valve</text>

<!-- Sub-modules within MMC -->
<rect x="170" y="110" width="60" height="15" rx="2" fill="#0d6efd"/>
<text x="200" y="121" text-anchor="middle" font-family="Arial, sans-serif" font-size="6" fill="white">T-IGBT-G6500</text>

<rect x="170" y="130" width="60" height="15" rx="2" fill="#0d6efd"/>
<text x="200" y="141" text-anchor="middle" font-family="Arial, sans-serif" font-size="6" fill="white">T-IGBT-G6500</text>

<rect x="170" y="150" width="60" height="15" rx="2" fill="#0d6efd"/>
<text x="200" y="161" text-anchor="middle" font-family="Arial, sans-serif" font-size="6" fill="white">T-IGBT-G6500</text>

<rect x="170" y="170" width="60" height="15" rx="2" fill="#0d6efd"/>
<text x="200" y="181" text-anchor="middle" font-family="Arial, sans-serif" font-size="6" fill="white">T-IGBT-G6500</text>

<rect x="170" y="190" width="60" height="15" rx="2" fill="#0d6efd"/>
<text x="200" y="201" text-anchor="middle" font-family="Arial, sans-serif" font-size="6" fill="white">T-IGBT-G6500</text>

<!-- DC Link -->
<line x1="240" y1="130" x2="280" y2="130" stroke="#333" stroke-width="4"/>
<line x1="240" y1="170" x2="280" y2="170" stroke="#333" stroke-width="4"/>
<text x="260" y="120" text-anchor="middle" font-family="Arial, sans-serif" font-size="8" fill="#666">DC+</text>
<text x="260" y="185" text-anchor="middle" font-family="Arial, sans-serif" font-size="8" fill="#666">DC-</text>

<!-- DC Cable -->
<rect x="280" y="120" width="40" height="50" rx="4" fill="#ffc107" stroke="#e0a800" stroke-width="1"/>
<text x="300" y="140" text-anchor="middle" font-family="Arial, sans-serif" font-size="8" fill="#333" font-weight="bold">HVDC</text>
<text x="300" y="152" text-anchor="middle" font-family="Arial, sans-serif" font-size="7" fill="#333">Cable</text>
<text x="300" y="162" text-anchor="middle" font-family="Arial, sans-serif" font-size="7" fill="#333">±400kV</text>

<!-- Remote Grid -->
<rect x="340" y="120" width="60" height="60" rx="8" fill="#28a745" stroke="#1e7e34" stroke-width="2"/>
<text x="370" y="145" text-anchor="middle" font-family="Arial, sans-serif" font-size="10" fill="white" font-weight="bold">AC</text>
<text x="370" y="158" text-anchor="middle" font-family="Arial, sans-serif" font-size="8" fill="white">Grid</text>

<!-- Connection Lines -->
<line x1="80" y1="150" x2="100" y2="150" stroke="#333" stroke-width="2"/>
<line x1="140" y1="150" x2="160" y2="150" stroke="#333" stroke-width="2"/>
<line x1="320" y1="145" x2="340" y2="145" stroke="#333" stroke-width="2"/>

<!-- Control System -->
<rect x="180" y="30" width="60" height="30" rx="4" fill="#6c757d" stroke="#495057" stroke-width="1"/>
<text x="210" y="45" text-anchor="middle" font-family="Arial, sans-serif" font-size="9" fill="white" font-weight="bold">Control</text>
<text x="210" y="55" text-anchor="middle" font-family="Arial, sans-serif" font-size="7" fill="white">HVDC Station</text>

<!-- Control Lines -->
<line x1="200" y1="60" x2="200" y2="80" stroke="#6c757d" stroke-width="2" stroke-dasharray="3,3"/>

<!-- Cooling System -->
<rect x="60" y="240" width="80" height="25" rx="4" fill="#17a2b8" stroke="#138496" stroke-width="1"/>
<text x="100" y="252" text-anchor="middle" font-family="Arial, sans-serif" font-size="8" fill="white" font-weight="bold">Cooling System</text>

<!-- Protection -->
<rect x="270" y="240" width="80" height="25" rx="4" fill="#fd7e14" stroke="#e36209" stroke-width="1"/>
<text x="310" y="252" text-anchor="middle" font-family="Arial, sans-serif" font-size="8" fill="white" font-weight="bold">Protection System</text>

<!-- Features -->
<text x="20" y="280" font-family="Arial, sans-serif" font-size="11" fill="#0033a0" font-weight="bold">Key Features:</text>
<text x="20" y="295" font-family="Arial, sans-serif" font-size="9" fill="#333">• Modular Multi-Level Converter • 6500V Press-Pack IGBTs • Bi-directional Power Flow</text>

<!-- Title -->
<text x="200" y="20" text-anchor="middle" font-family="Arial, sans-serif" font-size="14" fill="#0033a0" font-weight="bold">VSC-HVDC Valve Stack Solution</text>
</svg>