<svg width="24" height="24" viewBox="0 0 24 24" fill="none" xmlns="http://www.w3.org/2000/svg">
<path d="M8.5 6.5C4.36 6.5 1 9.36 1 12.5c0 1.71.82 3.24 2.13 4.24-.13.6-.63 2.26-1.13 3.26 0 0 1.5-.5 3.5-2 .63.13 1.28.2 1.5.2 3.64 0 6.5-2.36 6.5-5.5s-2.86-5.2-6.5-5.2zm-2.5 7c-.55 0-1-.45-1-1s.45-1 1-1 1 .45 1 1-.45 1-1 1zm5 0c-.55 0-1-.45-1-1s.45-1 1-1 1 .45 1 1-.45 1-1 1z" fill="#1AAD19"/>
<path d="M16 0c-4.42 0-8 3.08-8 6.5 0 1.87.87 3.55 2.25 4.69-.07.33-.34 1.23-.61 1.78 0 0 .81-.27 1.89-1.08.34.07.7.11 1.09.11 4.42 0 8-3.08 8-6.5S20.42 0 16 0zm-3 5.5c0-.55.45-1 1-1s1 .45 1 1-.45 1-1 1-1-.45-1-1zm6 0c0-.55.45-1 1-1s1 .45 1 1-.45 1-1 1-1-.45-1-1z" fill="#1AAD19"/>
</svg>