<svg xmlns="http://www.w3.org/2000/svg" width="24" height="24" viewBox="0 0 24 24" fill="#1AAD19">
  <path d="M8.5 12c0 1.1-.9 2-2 2s-2-.9-2-2 .9-2 2-2 2 .9 2 2zm7-2c1.1 0 2 .9 2 2s-.9 2-2 2-2-.9-2-2 .9-2 2-2z"/>
  <path d="M12 2C6.48 2 2 6.48 2 12s4.48 10 10 10 10-4.48 10-10S17.52 2 12 2zm0 18c-4.41 0-8-3.59-8-8 0-.29.02-.58.05-.86C5.27 9.85 6.84 9 8.5 9c2.49 0 4.5 2.01 4.5 4.5 0 .83-.23 1.6-.63 2.27.4.67 1.13 1.23 2.13 1.23 1.38 0 2.5-1.12 2.5-2.5 0-2.49-2.01-4.5-4.5-4.5-.42 0-.83.06-1.21.16C10.4 7.84 9.22 6 7.5 6 5.01 6 3 8.01 3 10.5c0 .89.26 1.72.7 2.42C3.28 14.05 3 15.49 3 17c0 2.76 2.24 5 5 5h8c2.76 0 5-2.24 5-5s-2.24-5-5-5h-4z"/>
  <circle cx="8" cy="12" r="1" fill="white"/>
  <circle cx="16" cy="12" r="1" fill="white"/>
</svg>